# xmcd
#
# Track frame offsets:
#	150
#	23348
#	42246
#	60319
#	82557
#	101300
#	121945
#	142942
#	166705
#	189903
#	208987
#	227060
#	249244
#	268065
#	288670
#	309707
#
# Disc length: 4445
#
# Revision: 1
# Processed by: cddbd v1.5.1PL2 Copyright (c) Steve Scherf et al.
# Submitted via: kTunes Lite (development) 1.0patch41.18
#
DISCID=c5115b10
DTITLE=Best Male Country Hits of 2004 - SC-2461
DYEAR=2004
DGENRE=Karaoke
TTITLE0=Tim McGraw - Live Like You Were Dying
TTITLE1=Josh Turner - Long Black Train
TTITLE2=Keith Urban - Days Go By
TTITLE3=Rascal Flatts - Mayberry
TTITLE4=Toby Keith - I Love This Bar
TTITLE5=Alan Jackson - Remember When
TTITLE6=John Michael Montgomery - Letters From Home
TTITLE7=Kenny Chesney - When The Sun Goes Down
TTITLE8=Tim McGraw - Live Like You Were Dying (vocals)
TTITLE9=Josh Turner - Long Black Train (vocals)
TTITLE10=Keith Urban - Days Go By (vocals)
TTITLE11=Rascal Flatts - Mayberry (vocals)
TTITLE12=Toby Keith - I Love This Bar (vocals)
TTITLE13=Alan Jackson - Remember When (vocals)
TTITLE14=John Michael Montgomery - Letters From Home (vocals)
TTITLE15=Kenny Chesney - When The Sun Goes Down (vocals)
EXTD=
EXTT0=
EXTT1=
EXTT2=
EXTT3=
EXTT4=
EXTT5=
EXTT6=
EXTT7=
EXTT8=
EXTT9=
EXTT10=
EXTT11=
EXTT12=
EXTT13=
EXTT14=
EXTT15=
PLAYORDER=
